<svg width="64" height="64" fill="none" xmlns="http://www.w3.org/2000/svg"><path d="M19.289 48.782a4.071 4.071 0 003.093-2.986c.96-.25 1.885-.57 2.827-.907v-2.133c.007-.305.043-.609.107-.907a31.005 31.005 0 01-3.236 1.102 4.054 4.054 0 00-7.609 1.12h-.8a21.209 21.209 0 01-5.12-12.924 31.625 31.625 0 018.89-8.391 3.965 3.965 0 004.07.995 32.923 32.923 0 007.947 8.89c.116-.15.24-.293.373-.428l1.69-1.617a30.046 30.046 0 01-7.734-8.516 4.036 4.036 0 00.622-2.133v-.391a31.448 31.448 0 0120.035 0 31.088 31.088 0 01-2.044 5.937h3.111a33.782 33.782 0 001.618-4.835c.764.338 1.493.729 2.24 1.138a21.227 21.227 0 011.778 7.27 4.925 4.925 0 012.186-.621c.41.008.815.067 1.21.177a24.89 24.89 0 10-25.956 26.49 4.836 4.836 0 010-3.556 21.208 21.208 0 01-9.298-2.774zM29.796 8.89a21.334 21.334 0 0115.306 6.507c0 .444 0 .906-.142 1.35a34.151 34.151 0 00-21.956.196A4.054 4.054 0 0020.872 16a30.227 30.227 0 01-1.084-4.498A21.192 21.192 0 0129.796 8.89zm-12.623 4.196c.23 1.152.521 2.291.872 3.413a4.054 4.054 0 00-1.903 3.431v.267a34.578 34.578 0 00-7.253 6.097 21.333 21.333 0 018.284-13.208z" fill="#0057FF"/><path d="M44.445 37.671a6.826 6.826 0 106.897 6.773 6.88 6.88 0 00-6.897-6.773zm0 10.81a3.982 3.982 0 114.053-4.037 4.017 4.017 0 01-4.053 4.036z" fill="#0057FF"/><path d="M60.747 42.916a2.027 2.027 0 00-1.245-1.956l-2.773-.818c-.13-.38-.284-.752-.462-1.12l1.28-2.364a2.026 2.026 0 00-.374-2.383l-2.382-2.346a2.027 2.027 0 00-2.382-.356l-2.382 1.263a12.957 12.957 0 00-1.191-.498L48 29.707a2.027 2.027 0 00-1.92-1.352h-3.413a2.026 2.026 0 00-1.92 1.423l-.782 2.542c-.412.145-.815.312-1.21.498l-2.346-1.245a2.026 2.026 0 00-2.364.338l-2.436 2.329a2.027 2.027 0 00-.373 2.4l1.244 2.276c-.19.379-.355.764-.498 1.155l-2.506.818a2.009 2.009 0 00-1.44 1.938v3.324A2.027 2.027 0 0029.493 48l2.614.782c.142.38.308.759.498 1.138l-1.28 2.4a2.027 2.027 0 00.355 2.4l2.382 2.347a2.027 2.027 0 002.383.355l2.435-1.28c.367.166.74.32 1.12.462l.782 2.614a2.027 2.027 0 001.938 1.422h3.378A2.027 2.027 0 0048 59.218l.782-2.614c.374-.124.747-.284 1.103-.444l2.453 1.298a2.027 2.027 0 002.364-.356l2.383-2.346a2.027 2.027 0 00.373-2.4l-1.298-2.383c.166-.355.314-.71.445-1.066l2.666-.783a2.01 2.01 0 001.476-1.902v-3.306zm-2.845 2.666l-3.555 1.031-.214.747a9.857 9.857 0 01-.8 1.938l-.373.675 1.778 3.183-1.529 1.493-3.236-1.778-.657.356c-.634.341-1.3.615-1.991.817l-.747.214-1.049 3.555h-2.187l-1.048-3.466-.747-.214a10.422 10.422 0 01-2.01-.8l-.657-.355-3.218 1.777-1.529-1.51 1.778-3.236-.39-.676a9.959 9.959 0 01-.872-2.009l-.231-.728-3.467-1.032v-2.15l3.45-1.032.212-.729a9.828 9.828 0 01.872-2.026l.39-.694-1.777-3.075 1.547-1.494 3.146 1.672.676-.374a10.31 10.31 0 012.08-.871l.729-.213 1.049-3.396h2.186l1.031 3.378.73.213c.715.21 1.407.495 2.061.854l.676.373 3.2-1.689 1.529 1.511-1.778 3.147.373.675c.352.637.633 1.31.836 2.01l.213.746 3.431 1.013.09 2.17z" fill="#0057FF"/></svg>