<svg width="64" height="64" fill="none" xmlns="http://www.w3.org/2000/svg"><path d="M60 46H50V36h-4v10H36v4h10v10h4V50h10v-4z" fill="#0057FF"/><path d="M48.254 23.68l2.362.426a11.583 11.583 0 015.25 2.288A10.843 10.843 0 0159.906 36h4.06a15.004 15.004 0 00-12.3-15.77 20.014 20.014 0 00-15.88-15.866 20.004 20.004 0 00-23.44 15.866A15.01 15.01 0 00.118 36.82 15.368 15.368 0 0015.546 50H28v-4H15.396A11.264 11.264 0 014.19 37.028a11.012 11.012 0 018.868-12.86l2.698-.49.428-2.22A16.412 16.412 0 0129.668 8.174a15.942 15.942 0 016.028.26 16.287 16.287 0 0112.106 12.892l.452 2.354z" fill="#0057FF"/></svg>