<svg width="64" height="64" fill="none" xmlns="http://www.w3.org/2000/svg"><g clip-path="url(#clip0)" fill="#0057FF"><path d="M43.318 29.636a1.459 1.459 0 00-2.045-.227 1.457 1.457 0 00-.227 2.046l5.09 6.363-5.09 6.364a1.457 1.457 0 001.136 2.363c.426 0 .85-.187 1.136-.545l5.819-7.273a1.46 1.46 0 000-1.818l-5.819-7.273zm-20.591-.227a1.462 1.462 0 00-2.045.227l-5.819 7.273a1.46 1.46 0 000 1.818L20.682 46a1.454 1.454 0 002.272-1.818l-5.09-6.364 5.09-6.364c.5-.627.4-1.542-.227-2.045zM36.938 26.3a1.452 1.452 0 00-1.912.764l-8.727 20.364a1.455 1.455 0 002.676 1.145l8.727-20.364a1.455 1.455 0 00-.764-1.91zm-15.12-11.755a1.455 1.455 0 100-2.909 1.455 1.455 0 000 2.91zm-5.818 0a1.454 1.454 0 100-2.909 1.454 1.454 0 000 2.91zm-5.818 0a1.455 1.455 0 100-2.909 1.455 1.455 0 000 2.91z"/><path d="M57.847 5.818H6.153A6.16 6.16 0 000 11.971v40.057a6.16 6.16 0 006.153 6.154h51.694A6.16 6.16 0 0064 52.029V11.97a6.16 6.16 0 00-6.153-6.153zM6.153 8.728h51.694a3.248 3.248 0 013.244 3.243v2.574H33.455a1.48 1.48 0 00-.526.098l-7.02 2.728h-23v-5.4a3.248 3.248 0 013.244-3.244zm51.694 46.545H6.153a3.248 3.248 0 01-3.244-3.244v-31.75h23.273c.179 0 .358-.033.525-.097l7.02-2.728h27.364V52.03a3.248 3.248 0 01-3.244 3.244z"/></g><defs><clipPath id="clip0"><path fill="#fff" d="M0 0h64v64H0z"/></clipPath></defs></svg>