<svg width="64" height="64" fill="none" xmlns="http://www.w3.org/2000/svg"><path d="M43.82 20.01A2.987 2.987 0 0041 18h-1v-2h1a3.01 3.01 0 003-3V5a3.01 3.01 0 00-3-3H5a3.009 3.009 0 00-3 3v8a3.01 3.01 0 003 3h1v2H5a3.01 3.01 0 00-3 3v8a3.01 3.01 0 003 3h1v2H5a3.01 3.01 0 00-3 3v8a3.01 3.01 0 003 3h19v8c0 3.94 9.56 6 19 6s19-2.06 19-6V26c0-3.83-9.01-5.87-18.18-5.99zM5 14a1 1 0 01-1-1V5a1 1 0 011-1h36a1 1 0 011 1v8a1 1 0 01-1 1H5zm33 2v2h-4v-2h4zm-6 0v2H14v-2h18zm-20 0v2H8v-2h4zm12 30H5a1 1 0 01-1-1v-8a1 1 0 011-1h19v10zM8 34v-2h4v2H8zm16 0H14v-2h10v2zm0-8v4H5a1 1 0 01-1-1v-8a1 1 0 011-1h36a.697.697 0 01.14.03C32.34 20.28 24 22.32 24 26zm36 30c0 1.36-6 4-17 4s-17-2.64-17-4v-7.18C29.29 50.91 36.16 52 43 52s13.71-1.09 17-3.18V56zm0-10c0 1.36-6 4-17 4s-17-2.64-17-4v-7.18C29.29 40.91 36.16 42 43 42s13.71-1.09 17-3.18V46zm0-10c0 1.36-6 4-17 4s-17-2.64-17-4v-7.18C29.29 30.91 36.16 32 43 32s13.71-1.09 17-3.18V36zm-17-6c-11 0-17-2.64-17-4 0-1.36 6-4 17-4s17 2.64 17 4c0 1.36-6 4-17 4z" fill="#0057FF"/><path d="M42 35h2v2h-2v-2zm0 11h2v2h-2v-2zm0 9h2v2h-2v-2zM11 22H7a1 1 0 00-1 1v4a1 1 0 001 1h4a1 1 0 001-1v-4a1 1 0 00-1-1zm-1 4H8v-2h2v2zm9-4h-4a1 1 0 00-1 1v4a1 1 0 001 1h4a1 1 0 001-1v-4a1 1 0 00-1-1zm-1 4h-2v-2h2v2zM11 6H7a1 1 0 00-1 1v4a1 1 0 001 1h4a1 1 0 001-1V7a1 1 0 00-1-1zm-1 4H8V8h2v2zm9-4h-4a1 1 0 00-1 1v4a1 1 0 001 1h4a1 1 0 001-1V7a1 1 0 00-1-1zm-1 4h-2V8h2v2zm4-4h14v2H22V6zm16 0h2v2h-2V6zm-16 4h14v2H22v-2zm16 0h2v2h-2v-2zM11 38H7a1 1 0 00-1 1v4a1 1 0 001 1h4a1 1 0 001-1v-4a1 1 0 00-1-1zm-1 4H8v-2h2v2zm9-4h-4a1 1 0 00-1 1v4a1 1 0 001 1h4a1 1 0 001-1v-4a1 1 0 00-1-1zm-1 4h-2v-2h2v2z" fill="#0057FF"/></svg>