<svg width="209" height="45" fill="none" xmlns="http://www.w3.org/2000/svg"><path d="M15.77 30.143a2.714 2.714 0 002.714-2.714 19 19 0 0138 0 2.714 2.714 0 005.43 0A24.431 24.431 0 0037.483 3a24.43 24.43 0 00-24.428 24.429 2.714 2.714 0 002.714 2.714z" fill="#0057FF"/><path d="M72.228 35.571H48.333a13.499 13.499 0 002.722-8.142 13.572 13.572 0 00-27.143 0 2.715 2.715 0 005.428 0 8.143 8.143 0 118.143 8.142H2.742a2.71 2.71 0 00-2.533 1.67A2.715 2.715 0 002.742 41h69.486a2.714 2.714 0 000-5.429zM91.034 24h3.968V6.85h-3.968V24zm11.591 0h3.969V10.084h5.488V6.85H97.137v3.234h5.488V24zm29.257-13.083l-3.552 9.702-3.528-9.702h-2.573l-3.601 9.653-3.455-9.653h-2.891L117.084 24h2.94l3.43-9.016L126.835 24h2.94l4.827-13.083h-2.72zm6.222-2.401c.931 0 1.592-.686 1.592-1.568 0-.833-.686-1.495-1.592-1.495-.907 0-1.593.686-1.593 1.544 0 .857.686 1.519 1.593 1.519zM136.928 24h2.352V11.015h-2.352V24zm13.605-12.985c-2.23 0-3.969.906-4.9 2.474v-2.376h-1.666V24h1.739v-6.762c0-2.94 1.74-4.655 4.508-4.655 2.45 0 3.871 1.396 3.871 4.116V24h1.74v-7.473c0-3.699-2.156-5.512-5.292-5.512zm20.329-5.194v8.354c-1.029-1.935-2.94-3.062-5.219-3.062-3.601 0-6.321 2.646-6.321 6.492 0 3.822 2.72 6.493 6.321 6.493 2.303 0 4.239-1.127 5.243-3.111V24h1.201V5.821h-1.225zm-5.145 17.175c-2.94 0-5.145-2.181-5.145-5.39 0-3.21 2.205-5.39 5.145-5.39 2.94 0 5.145 2.18 5.145 5.39 0 3.209-2.205 5.39-5.145 5.39z" fill="#0057FF"/><path d="M92.684 42.072c2.148 0 3.132-1.056 3.132-2.292 0-3.06-5.172-1.668-5.172-3.972 0-.84.684-1.524 2.22-1.524.744 0 1.584.228 2.304.696l.3-.708c-.672-.468-1.656-.744-2.604-.744-2.136 0-3.096 1.068-3.096 2.304 0 3.108 5.172 1.692 5.172 3.996 0 .828-.684 1.488-2.256 1.488-1.104 0-2.172-.432-2.772-1.02l-.348.684c.624.648 1.86 1.092 3.12 1.092zm10.395-3.228c0-1.896-1.284-3.204-3.06-3.204s-3.084 1.332-3.084 3.204 1.344 3.216 3.312 3.216c.996 0 1.872-.36 2.436-1.032l-.48-.552c-.48.552-1.164.828-1.932.828-1.38 0-2.388-.876-2.484-2.196h5.28c0-.096.012-.192.012-.264zm-3.06-2.472c1.236 0 2.136.864 2.244 2.1h-4.476c.108-1.236 1.008-2.1 2.232-2.1zm5.61.552v-1.236h-.816V42h.852v-3.216c0-1.488.804-2.328 2.124-2.328.06 0 .132.012.204.012v-.828c-1.164 0-1.968.444-2.364 1.284zm4.339-2.616c.36 0 .624-.276.624-.624 0-.324-.276-.588-.624-.588a.615.615 0 00-.624.6c0 .336.276.612.624.612zM109.536 42h.852v-6.312h-.852V42zm7.686-6.312l-2.388 5.376-2.364-5.376h-.888L114.378 42h.876l2.808-6.312h-.84zm7.372 3.156c0-1.896-1.284-3.204-3.06-3.204s-3.084 1.332-3.084 3.204 1.344 3.216 3.312 3.216c.996 0 1.872-.36 2.436-1.032l-.48-.552c-.48.552-1.164.828-1.932.828-1.38 0-2.388-.876-2.484-2.196h5.28c0-.096.012-.192.012-.264zm-3.06-2.472c1.236 0 2.136.864 2.244 2.1h-4.476c.108-1.236 1.008-2.1 2.232-2.1zm14.619 5.196l-1.2-1.236c.336-.528.588-1.176.744-1.932l-.696-.216c-.12.636-.312 1.176-.564 1.62l-2.304-2.376c1.368-.792 1.872-1.38 1.872-2.22 0-1.044-.768-1.668-1.956-1.668-1.296 0-2.124.72-2.124 1.788 0 .648.24 1.152 1.056 1.992-1.536.888-2.112 1.62-2.112 2.616 0 1.272 1.176 2.136 2.82 2.136 1.14 0 2.1-.384 2.808-1.14l1.164 1.2.492-.564zm-4.104-7.392c.78 0 1.224.42 1.224 1.044 0 .6-.396 1.02-1.608 1.716-.768-.78-.948-1.128-.948-1.62 0-.672.492-1.14 1.332-1.14zm-.312 7.188c-1.212 0-2.028-.6-2.028-1.512 0-.744.408-1.272 1.752-2.04l2.532 2.604c-.576.636-1.344.948-2.256.948zm10.712.636h.888v-7.632h2.952V33.6h-6.792v.768h2.952V42zm9.931-3.156c0-1.896-1.284-3.204-3.06-3.204s-3.084 1.332-3.084 3.204 1.344 3.216 3.312 3.216c.996 0 1.872-.36 2.436-1.032l-.48-.552c-.48.552-1.164.828-1.932.828-1.38 0-2.388-.876-2.484-2.196h5.28c0-.096.012-.192.012-.264zm-3.06-2.472c1.236 0 2.136.864 2.244 2.1h-4.476c.108-1.236 1.008-2.1 2.232-2.1zm7.41 5.688c1.068 0 1.968-.432 2.472-1.248l-.636-.432c-.432.636-1.104.924-1.836.924-1.38 0-2.388-.972-2.388-2.46 0-1.476 1.008-2.46 2.388-2.46.732 0 1.404.3 1.836.936l.636-.432c-.504-.828-1.404-1.248-2.472-1.248-1.884 0-3.252 1.32-3.252 3.204 0 1.884 1.368 3.216 3.252 3.216zm7.268-6.42c-1.068 0-1.896.42-2.364 1.152v-3.696h-.852V42h.852v-3.312c0-1.44.852-2.28 2.208-2.28 1.2 0 1.896.684 1.896 2.016V42h.852v-3.66c0-1.812-1.056-2.7-2.592-2.7zm8.121 0c-1.092 0-1.944.444-2.4 1.212v-1.164h-.816V42h.852v-3.312c0-1.44.852-2.28 2.208-2.28 1.2 0 1.896.684 1.896 2.016V42h.852v-3.66c0-1.812-1.056-2.7-2.592-2.7zm7.508 6.42c1.848 0 3.204-1.344 3.204-3.216s-1.356-3.204-3.204-3.204-3.216 1.332-3.216 3.204 1.368 3.216 3.216 3.216zm0-.756c-1.344 0-2.352-.984-2.352-2.46s1.008-2.46 2.352-2.46c1.344 0 2.34.984 2.34 2.46s-.996 2.46-2.34 2.46zm4.944.696h.852v-8.904h-.852V42zm5.802.06c1.848 0 3.204-1.344 3.204-3.216s-1.356-3.204-3.204-3.204-3.216 1.332-3.216 3.204 1.368 3.216 3.216 3.216zm0-.756c-1.344 0-2.352-.984-2.352-2.46s1.008-2.46 2.352-2.46c1.344 0 2.34.984 2.34 2.46s-.996 2.46-2.34 2.46zm9.972-5.616V36.9c-.528-.828-1.44-1.26-2.496-1.26-1.8 0-3.168 1.236-3.168 3.048s1.368 3.072 3.168 3.072c1.032 0 1.932-.42 2.46-1.224v.804c0 1.56-.732 2.292-2.328 2.292-.972 0-1.884-.324-2.484-.864l-.432.648c.66.624 1.788.972 2.94.972 2.088 0 3.156-.984 3.156-3.156v-5.544h-.816zm-2.412 5.316c-1.392 0-2.388-.948-2.388-2.316 0-1.368.996-2.304 2.388-2.304s2.4.936 2.4 2.304c0 1.368-1.008 2.316-2.4 2.316zm10.074-5.316l-2.376 5.364-2.376-5.364h-.888l2.82 6.3-.276.612c-.36.792-.744 1.056-1.308 1.056-.456 0-.84-.168-1.152-.48l-.396.636c.384.384.948.576 1.536.576.9 0 1.572-.396 2.1-1.632l3.156-7.068h-.84z" fill="#18181B"/></svg>