<svg width="18" height="14" viewBox="0 0 18 14" fill="none" xmlns="http://www.w3.org/2000/svg">
<path fill-rule="evenodd" clip-rule="evenodd" d="M16.7139 5.91369L11.7755 0.975313C11.1401 0.341562 10.1115 0.341562 9.47613 0.975313C8.84238 1.60906 8.84238 2.63931 9.47613 3.27306L11.6601 5.45706H2.5C1.60462 5.45706 0.875 6.18506 0.875 7.08206C0.875 7.97744 1.60462 8.70706 2.5 8.70706H11.6601L9.47613 10.8894C8.84238 11.5248 8.84238 12.5534 9.47613 13.1888C10.1115 13.8226 11.1401 13.8226 11.7755 13.1888L16.7139 8.24881C16.7204 8.24394 16.7269 8.23744 16.7318 8.23094C17.0503 7.91406 17.2079 7.49806 17.2079 7.08206C17.2079 6.66606 17.0503 6.25006 16.7318 5.93156C16.7269 5.92669 16.7204 5.92019 16.7139 5.91369Z" fill="white"/>
</svg>
