<svg width="17" height="17" viewBox="0 0 17 17" fill="none" xmlns="http://www.w3.org/2000/svg">
<path d="M3.01675 11.7538C2.2247 10.4186 1.94732 8.84018 2.23669 7.31493C2.52606 5.78968 3.36228 4.42253 4.58833 3.4702C5.81437 2.51786 7.3459 2.04586 8.89533 2.14282C10.4448 2.23978 11.9055 2.89903 13.0033 3.99678C14.101 5.09453 14.7603 6.55527 14.8572 8.10469C14.9542 9.65412 14.4822 11.1857 13.5299 12.4117C12.5775 13.6377 11.2104 14.474 9.68515 14.7634C8.1599 15.0527 6.58147 14.7754 5.24626 13.9833L5.24628 13.9832L3.04447 14.6123C2.95338 14.6384 2.85698 14.6396 2.76527 14.6158C2.67355 14.592 2.58987 14.5442 2.52287 14.4772C2.45588 14.4102 2.40802 14.3265 2.38426 14.2348C2.36049 14.1431 2.36169 14.0467 2.38772 13.9556L3.0168 11.7538L3.01675 11.7538Z" stroke="#18181B" stroke-linecap="round" stroke-linejoin="round"/>
<path d="M6.375 7.4375H10.625" stroke="#18181B" stroke-linecap="round" stroke-linejoin="round"/>
<path d="M6.375 9.5625H10.625" stroke="#18181B" stroke-linecap="round" stroke-linejoin="round"/>
</svg>
