<svg width="64" height="64" viewBox="0 0 64 64" fill="none" xmlns="http://www.w3.org/2000/svg">
<path d="M43.82 20.01C43.6171 19.4234 43.2365 18.9147 42.7311 18.5544C42.2257 18.1942 41.6206 18.0004 41 18H40V16H41C41.7949 15.9976 42.5566 15.6808 43.1187 15.1187C43.6808 14.5566 43.9976 13.7949 44 13V5C43.9976 4.20508 43.6808 3.4434 43.1187 2.8813C42.5566 2.31921 41.7949 2.00237 41 2H5C4.20508 2.00237 3.4434 2.31921 2.8813 2.8813C2.31921 3.4434 2.00237 4.20508 2 5V13C2.00237 13.7949 2.31921 14.5566 2.8813 15.1187C3.4434 15.6808 4.20508 15.9976 5 16H6V18H5C4.20508 18.0024 3.4434 18.3192 2.8813 18.8813C2.31921 19.4434 2.00237 20.2051 2 21V29C2.00237 29.7949 2.31921 30.5566 2.8813 31.1187C3.4434 31.6808 4.20508 31.9976 5 32H6V34H5C4.20508 34.0024 3.4434 34.3192 2.8813 34.8813C2.31921 35.4434 2.00237 36.2051 2 37V45C2.00237 45.7949 2.31921 46.5566 2.8813 47.1187C3.4434 47.6808 4.20508 47.9976 5 48H24V56C24 59.94 33.56 62 43 62C52.44 62 62 59.94 62 56V26C62 22.17 52.99 20.13 43.82 20.01ZM5 14C4.73478 14 4.48043 13.8946 4.29289 13.7071C4.10536 13.5196 4 13.2652 4 13V5C4 4.73478 4.10536 4.48043 4.29289 4.29289C4.48043 4.10536 4.73478 4 5 4H41C41.2652 4 41.5196 4.10536 41.7071 4.29289C41.8946 4.48043 42 4.73478 42 5V13C42 13.2652 41.8946 13.5196 41.7071 13.7071C41.5196 13.8946 41.2652 14 41 14H5ZM38 16V18H34V16H38ZM32 16V18H14V16H32ZM12 16V18H8V16H12ZM24 46H5C4.73478 46 4.48043 45.8946 4.29289 45.7071C4.10536 45.5196 4 45.2652 4 45V37C4 36.7348 4.10536 36.4804 4.29289 36.2929C4.48043 36.1054 4.73478 36 5 36H24V46ZM8 34V32H12V34H8ZM24 34H14V32H24V34ZM24 26V30H5C4.73478 30 4.48043 29.8946 4.29289 29.7071C4.10536 29.5196 4 29.2652 4 29V21C4 20.7348 4.10536 20.4804 4.29289 20.2929C4.48043 20.1054 4.73478 20 5 20H41C41.0476 20.0052 41.0945 20.0152 41.14 20.03C32.34 20.28 24 22.32 24 26ZM60 56C60 57.36 54 60 43 60C32 60 26 57.36 26 56V48.82C29.29 50.91 36.16 52 43 52C49.84 52 56.71 50.91 60 48.82V56ZM60 46C60 47.36 54 50 43 50C32 50 26 47.36 26 46V38.82C29.29 40.91 36.16 42 43 42C49.84 42 56.71 40.91 60 38.82V46ZM60 36C60 37.36 54 40 43 40C32 40 26 37.36 26 36V28.82C29.29 30.91 36.16 32 43 32C49.84 32 56.71 30.91 60 28.82V36ZM43 30C32 30 26 27.36 26 26C26 24.64 32 22 43 22C54 22 60 24.64 60 26C60 27.36 54 30 43 30Z" fill="#0057FF"/>
<path d="M42 35H44V37H42V35Z" fill="#0057FF"/>
<path d="M42 46H44V48H42V46Z" fill="#0057FF"/>
<path d="M42 55H44V57H42V55Z" fill="#0057FF"/>
<path d="M11 22H7C6.73478 22 6.48043 22.1054 6.29289 22.2929C6.10536 22.4804 6 22.7348 6 23V27C6 27.2652 6.10536 27.5196 6.29289 27.7071C6.48043 27.8946 6.73478 28 7 28H11C11.2652 28 11.5196 27.8946 11.7071 27.7071C11.8946 27.5196 12 27.2652 12 27V23C12 22.7348 11.8946 22.4804 11.7071 22.2929C11.5196 22.1054 11.2652 22 11 22ZM10 26H8V24H10V26Z" fill="#0057FF"/>
<path d="M19 22H15C14.7348 22 14.4804 22.1054 14.2929 22.2929C14.1054 22.4804 14 22.7348 14 23V27C14 27.2652 14.1054 27.5196 14.2929 27.7071C14.4804 27.8946 14.7348 28 15 28H19C19.2652 28 19.5196 27.8946 19.7071 27.7071C19.8946 27.5196 20 27.2652 20 27V23C20 22.7348 19.8946 22.4804 19.7071 22.2929C19.5196 22.1054 19.2652 22 19 22ZM18 26H16V24H18V26Z" fill="#0057FF"/>
<path d="M11 6H7C6.73478 6 6.48043 6.10536 6.29289 6.29289C6.10536 6.48043 6 6.73478 6 7V11C6 11.2652 6.10536 11.5196 6.29289 11.7071C6.48043 11.8946 6.73478 12 7 12H11C11.2652 12 11.5196 11.8946 11.7071 11.7071C11.8946 11.5196 12 11.2652 12 11V7C12 6.73478 11.8946 6.48043 11.7071 6.29289C11.5196 6.10536 11.2652 6 11 6ZM10 10H8V8H10V10Z" fill="#0057FF"/>
<path d="M19 6H15C14.7348 6 14.4804 6.10536 14.2929 6.29289C14.1054 6.48043 14 6.73478 14 7V11C14 11.2652 14.1054 11.5196 14.2929 11.7071C14.4804 11.8946 14.7348 12 15 12H19C19.2652 12 19.5196 11.8946 19.7071 11.7071C19.8946 11.5196 20 11.2652 20 11V7C20 6.73478 19.8946 6.48043 19.7071 6.29289C19.5196 6.10536 19.2652 6 19 6ZM18 10H16V8H18V10Z" fill="#0057FF"/>
<path d="M22 6H36V8H22V6Z" fill="#0057FF"/>
<path d="M38 6H40V8H38V6Z" fill="#0057FF"/>
<path d="M22 10H36V12H22V10Z" fill="#0057FF"/>
<path d="M38 10H40V12H38V10Z" fill="#0057FF"/>
<path d="M11 38H7C6.73478 38 6.48043 38.1054 6.29289 38.2929C6.10536 38.4804 6 38.7348 6 39V43C6 43.2652 6.10536 43.5196 6.29289 43.7071C6.48043 43.8946 6.73478 44 7 44H11C11.2652 44 11.5196 43.8946 11.7071 43.7071C11.8946 43.5196 12 43.2652 12 43V39C12 38.7348 11.8946 38.4804 11.7071 38.2929C11.5196 38.1054 11.2652 38 11 38ZM10 42H8V40H10V42Z" fill="#0057FF"/>
<path d="M19 38H15C14.7348 38 14.4804 38.1054 14.2929 38.2929C14.1054 38.4804 14 38.7348 14 39V43C14 43.2652 14.1054 43.5196 14.2929 43.7071C14.4804 43.8946 14.7348 44 15 44H19C19.2652 44 19.5196 43.8946 19.7071 43.7071C19.8946 43.5196 20 43.2652 20 43V39C20 38.7348 19.8946 38.4804 19.7071 38.2929C19.5196 38.1054 19.2652 38 19 38ZM18 42H16V40H18V42Z" fill="#0057FF"/>
</svg>
