<svg width="64" height="64" viewBox="0 0 64 64" fill="none" xmlns="http://www.w3.org/2000/svg">
<path d="M46 4L49.186 10L56 10.828L51 15.334L52 22L46 18.25L40 22L41 15.334L36 10.828L43 10L46 4Z" fill="#0057FF"/>
<path d="M45.4339 26.4981L41.5579 25.5021C40.8631 28.1786 39.3907 30.5891 37.3265 32.4291C35.2624 34.2691 32.6992 35.4561 29.9608 35.84C27.2224 36.2239 24.4317 35.7876 21.9411 34.5862C19.4506 33.3848 17.372 31.4721 15.968 29.0899C14.5639 26.7077 13.8975 23.9628 14.0527 21.202C14.208 18.4411 15.1781 15.7883 16.8404 13.5785C18.5027 11.3688 20.7826 9.70129 23.3922 8.78671C26.0018 7.87214 28.8238 7.75153 31.5019 8.44011L32.4999 4.56611C28.5959 3.55061 24.4638 3.87747 20.7679 5.49413C17.0721 7.11079 14.0273 9.92332 12.1231 13.4795C10.2188 17.0357 9.56578 21.129 10.2689 25.1012C10.9721 29.0734 12.9906 32.6937 15.9999 35.3801V60.0001L27.9999 52.0001L39.9999 60.0001V35.4161C42.6562 33.0486 44.5478 29.9442 45.4339 26.4981ZM35.9999 52.5261L27.9999 47.1921L19.9999 52.5261V38.1001C22.482 39.347 25.2208 39.9974 27.9985 39.9995C30.7762 40.0015 33.516 39.3553 35.9999 38.1121V52.5261Z" fill="#0057FF"/>
</svg>
