<svg width="64" height="64" viewBox="0 0 64 64" fill="none" xmlns="http://www.w3.org/2000/svg">
<path d="M28 33.18L22.82 28L20 30.82L28 38.82L44 22.82L41.18 20L28 33.18Z" fill="#0057FF"/>
<path d="M32 60L19.648 53.414C16.1267 51.5406 13.1819 48.7437 11.1299 45.3234C9.07776 41.9032 7.99577 37.9887 8.00001 34V8C8.00107 6.93946 8.42284 5.92266 9.17276 5.17274C9.92267 4.42283 10.9395 4.00106 12 4H52C53.0606 4.00106 54.0774 4.42283 54.8273 5.17274C55.5772 5.92266 55.999 6.93946 56 8V34C56.0042 37.9887 54.9223 41.9032 52.8702 45.3234C50.8181 48.7437 47.8733 51.5406 44.352 53.414L32 60ZM12 8V34C11.9967 37.2636 12.8822 40.4665 14.5615 43.2649C16.2409 46.0633 18.6506 48.3515 21.532 49.884L32 55.466L42.468 49.886C45.3498 48.3534 47.7597 46.0648 49.439 43.266C51.1183 40.4673 52.0037 37.2639 52 34V8H12Z" fill="#0057FF"/>
</svg>
