<svg width="64" height="64" viewBox="0 0 64 64" fill="none" xmlns="http://www.w3.org/2000/svg">
<path d="M19.289 48.7823C20.0319 48.6228 20.7154 48.2585 21.2621 47.7307C21.8088 47.2029 22.1968 46.5326 22.3823 45.7957C23.3423 45.5468 24.2667 45.2268 25.209 44.889V42.7557C25.2164 42.4508 25.2521 42.1473 25.3156 41.849C24.2582 42.2756 23.178 42.6436 22.0801 42.9512C21.6964 42.1919 21.0836 41.5725 20.3283 41.1808C19.573 40.7891 18.7137 40.645 17.872 40.7689C17.0303 40.8928 16.2489 41.2784 15.6385 41.8711C15.0281 42.4638 14.6197 43.2335 14.4712 44.0712H13.6712C10.561 40.4606 8.75737 35.9078 8.55118 31.1468C10.9403 27.7983 13.9596 24.948 17.4401 22.7557C17.9579 23.2854 18.6138 23.6594 19.3333 23.8354C20.0529 24.0114 20.8074 23.9822 21.5112 23.7512C23.597 27.1731 26.2901 30.1855 29.4579 32.6401C29.5739 32.4908 29.6986 32.3483 29.8312 32.2134L31.5201 30.5957C28.4179 28.2817 25.792 25.3902 23.7867 22.0801C24.1897 21.4412 24.4053 20.7021 24.409 19.9468V19.5557C30.9089 17.3714 37.9446 17.3714 44.4445 19.5557C43.9652 21.5989 43.2802 23.5883 42.4001 25.4934H45.5112C46.1715 23.9247 46.7123 22.3082 47.129 20.6579C47.8934 20.9957 48.6223 21.3868 49.369 21.7957C50.3876 24.0949 50.9895 26.5569 51.1467 29.0668C51.8171 28.6917 52.566 28.4786 53.3334 28.4446C53.7423 28.4527 54.1484 28.5124 54.5423 28.6223C54.2285 23.8269 52.5331 19.2249 49.6609 15.372C46.7887 11.5192 42.8624 8.5802 38.3563 6.91006C33.8502 5.23992 28.9569 4.91003 24.2674 5.96023C19.5779 7.01044 15.2928 9.39582 11.9294 12.8283C8.56598 16.2608 6.26825 20.5936 5.31363 25.3035C4.35901 30.0134 4.78835 34.8989 6.54978 39.3702C8.31122 43.8414 11.3294 47.707 15.2399 50.5003C19.1504 53.2936 23.7859 54.895 28.5867 55.1112C28.1352 53.9691 28.1352 52.6978 28.5867 51.5557C25.3148 51.3621 22.1323 50.4128 19.289 48.7823ZM29.7956 8.889C32.6527 8.89332 35.4798 9.47149 38.1092 10.5892C40.7386 11.7069 43.1166 13.3414 45.1023 15.3957C45.1023 15.8401 45.1023 16.3023 44.9601 16.7468C37.8195 14.3934 30.102 14.4622 23.0045 16.9423C22.4011 16.4261 21.6592 16.0984 20.8712 16.0001C20.3953 14.5308 20.0328 13.0271 19.7867 11.5023C22.8559 9.81779 26.2947 8.91993 29.7956 8.889ZM17.1734 13.0846C17.4033 14.2369 17.6941 15.3763 18.0445 16.4979C17.463 16.862 16.9833 17.3679 16.6506 17.968C16.3179 18.5681 16.143 19.2428 16.1423 19.929V20.1957C13.4561 21.8858 11.0155 23.9376 8.88896 26.2934C9.8849 21.0029 12.8442 16.2845 17.1734 13.0846Z" fill="#0057FF"/>
<path d="M44.4446 37.6712C43.0952 37.6853 41.7803 38.0989 40.666 38.8599C39.5516 39.6209 38.6878 40.6951 38.1836 41.9468C37.6794 43.1985 37.5575 44.5715 37.8333 45.8924C38.109 47.2133 38.77 48.4229 39.7328 49.3684C40.6957 50.3138 41.9171 50.9527 43.2428 51.2044C44.5685 51.456 45.9391 51.3091 47.1814 50.7822C48.4237 50.2553 49.482 49.3721 50.2226 48.2441C50.9631 47.1161 51.3528 45.7939 51.3423 44.4445C51.3143 42.6353 50.5746 40.9099 49.2836 39.6422C47.9925 38.3744 46.254 37.6663 44.4446 37.6712ZM44.4446 48.4801C43.6624 48.466 42.9017 48.2219 42.2575 47.7782C41.6132 47.3346 41.1138 46.711 40.8218 45.9853C40.5297 45.2596 40.4579 44.4639 40.6152 43.6976C40.7725 42.9313 41.152 42.2284 41.7064 41.6764C42.2607 41.1245 42.9654 40.7481 43.7323 40.5941C44.4993 40.4402 45.2946 40.5155 46.0191 40.8108C46.7435 41.106 47.3649 41.6081 47.8057 42.2543C48.2465 42.9006 48.4873 43.6623 48.4979 44.4445C48.5003 44.9766 48.3969 45.5039 48.1938 45.9958C47.9908 46.4876 47.692 46.9342 47.3149 47.3097C46.9378 47.6851 46.4899 47.9819 45.9972 48.1828C45.5044 48.3837 44.9767 48.4848 44.4446 48.4801Z" fill="#0057FF"/>
<path d="M60.7468 42.9155C60.7642 42.5014 60.6542 42.0919 60.4317 41.7422C60.2092 41.3926 59.8848 41.1195 59.5023 40.9599L56.729 40.1422C56.5986 39.7629 56.4446 39.3896 56.2668 39.0222L57.5468 36.6577C57.7479 36.273 57.8202 35.8339 57.7529 35.405C57.6857 34.9762 57.4826 34.5802 57.1734 34.2755L54.7912 31.9288C54.4844 31.6226 54.0874 31.4228 53.6587 31.3588C53.2299 31.2948 52.7919 31.37 52.409 31.5733L50.0268 32.8355C49.6383 32.6499 49.2407 32.4837 48.8357 32.3377L48.0001 29.7066C47.8599 29.31 47.5997 28.9668 47.2557 28.7247C46.9116 28.4826 46.5008 28.3536 46.0801 28.3555H42.6668C42.2373 28.3586 41.82 28.4979 41.4749 28.7536C41.1298 29.0092 40.8749 29.3678 40.7468 29.7777L39.9646 32.3199C39.5535 32.4655 39.15 32.6316 38.7557 32.8177L36.409 31.5733C36.0299 31.3719 35.5967 31.2961 35.1717 31.3568C34.7468 31.4175 34.3521 31.6116 34.0446 31.911L31.609 34.2399C31.2959 34.546 31.0903 34.9452 31.023 35.3778C30.9557 35.8105 31.0303 36.2532 31.2357 36.6399L32.4801 38.9155C32.2905 39.2948 32.1246 39.6799 31.9823 40.071L29.4757 40.8888C29.0581 41.0121 28.6918 41.2678 28.4321 41.6173C28.1724 41.9668 28.0333 42.3912 28.0357 42.8266V46.151C28.0559 46.5727 28.2072 46.9774 28.4685 47.3089C28.7299 47.6404 29.0882 47.8819 29.4935 47.9999L32.1068 48.7822C32.249 49.1614 32.4149 49.5407 32.6046 49.9199L31.3246 52.3199C31.117 52.7048 31.0395 53.1465 31.1035 53.579C31.1676 54.0116 31.3699 54.4118 31.6801 54.7199L34.0623 57.0666C34.3692 57.3729 34.7661 57.5727 35.1949 57.6367C35.6237 57.7007 36.0617 57.6255 36.4446 57.4222L38.8801 56.1422C39.2475 56.3081 39.6209 56.4622 40.0001 56.6044L40.7823 59.2177C40.9113 59.6305 41.169 59.9912 41.5176 60.2471C41.8663 60.503 42.2876 60.6407 42.7201 60.6399H46.0979C46.5243 60.6331 46.9376 60.492 47.2792 60.2367C47.6207 59.9813 47.873 59.6248 48.0001 59.2177L48.7823 56.6044C49.1557 56.4799 49.529 56.3199 49.8846 56.1599L52.3379 57.4577C52.7188 57.6568 53.1531 57.7297 53.5781 57.6658C54.0032 57.6019 54.3968 57.4045 54.7023 57.1022L57.0846 54.7555C57.3977 54.4495 57.6033 54.0503 57.6706 53.6176C57.7379 53.185 57.6633 52.7422 57.4579 52.3555L56.1601 49.9733C56.326 49.6177 56.4742 49.2622 56.6046 48.9066L59.2712 48.1244C59.6896 48.0092 60.0595 47.7617 60.3255 47.4188C60.5915 47.0759 60.7393 46.6561 60.7468 46.2222V42.9155ZM57.9023 45.5822L54.3468 46.6133L54.1334 47.3599C53.9364 48.0324 53.6682 48.682 53.3334 49.2977L52.9601 49.9733L54.7379 53.1555L53.209 54.6488L49.9734 52.871L49.3157 53.2266C48.6824 53.5682 48.0151 53.8422 47.3246 54.0444L46.5779 54.2577L45.529 57.8133H43.3423L42.2935 54.3466L41.5468 54.1333C40.8512 53.937 40.178 53.6689 39.5379 53.3333L38.8801 52.9777L35.6623 54.7555L34.1335 53.2444L35.9112 50.0088L35.5201 49.3333C35.1568 48.6977 34.8646 48.024 34.649 47.3244L34.4179 46.5955L30.9512 45.5644V43.4133L34.4001 42.3822L34.6135 41.6533C34.8269 40.9472 35.1191 40.2673 35.4846 39.6266L35.8757 38.9333L34.0979 35.8577L35.6446 34.3644L38.7912 36.0355L39.4668 35.6622C40.1262 35.2966 40.8237 35.0045 41.5468 34.791L42.2757 34.5777L43.3246 31.1822H45.5112L46.5423 34.5599L47.2712 34.7733C47.9875 34.9821 48.679 35.2683 49.3334 35.6266L50.009 35.9999L53.209 34.311L54.7379 35.8222L52.9601 38.9688L53.3334 39.6444C53.6854 40.281 53.9657 40.9548 54.169 41.6533L54.3823 42.3999L57.8134 43.4133L57.9023 45.5822Z" fill="#0057FF"/>
</svg>
