<svg width="64" height="64" viewBox="0 0 64 64" fill="none" xmlns="http://www.w3.org/2000/svg">
<path d="M60 46H50V36H46V46H36V50H46V60H50V50H60V46Z" fill="#0057FF"/>
<path d="M48.2541 23.68L50.6161 24.106C52.53 24.4172 54.3352 25.2039 55.8661 26.394C57.292 27.527 58.4095 29.001 59.1156 30.6799C59.8217 32.3587 60.0935 34.1883 59.9061 36H63.9661C64.2133 32.3189 63.0957 28.6759 60.8267 25.7668C58.5577 22.8577 55.2965 20.8865 51.6661 20.23C50.9085 16.3009 48.9905 12.6892 46.1599 9.86102C43.3292 7.03285 39.7158 5.11809 35.7861 4.36396C33.2051 3.86521 30.5511 3.88005 27.9758 4.40765C25.4006 4.93524 22.9546 5.96524 20.7777 7.43876C18.6007 8.91227 16.7356 10.8004 15.2888 12.9952C13.8421 15.19 12.8421 17.6484 12.3461 20.23C8.5754 20.9119 5.2083 23.0101 2.9348 26.0946C0.661297 29.1791 -0.346451 33.0164 0.118071 36.82C0.649364 40.5162 2.50833 43.8926 5.3476 46.3182C8.18687 48.7437 11.8122 50.0525 15.5461 50H28.0001V46H15.3961C12.7763 46.0412 10.224 45.1679 8.1787 43.5303C6.13336 41.8927 4.72289 39.5933 4.19007 37.028C3.92333 35.6009 3.94142 34.1351 4.2433 32.715C4.54518 31.2949 5.12489 29.9485 5.94908 28.7533C6.77326 27.5581 7.82565 26.5377 9.0457 25.7508C10.2657 24.9638 11.6294 24.4259 13.0581 24.168L15.7561 23.678L16.1841 21.458C16.7849 18.1225 18.4037 15.0548 20.8181 12.6762C23.2324 10.2977 26.324 8.72492 29.6681 8.17396C31.6756 7.87613 33.7216 7.96438 35.6961 8.43396C38.7412 9.18872 41.5036 10.8068 43.6511 13.0939C45.7987 15.3809 47.2401 18.2394 47.8021 21.326L48.2541 23.68Z" fill="#0057FF"/>
</svg>
