<svg width="64" height="64" viewBox="0 0 64 64" fill="none" xmlns="http://www.w3.org/2000/svg">
<g clip-path="url(#clip0)">
<path d="M43.3183 29.6363C42.8183 29.0114 41.9062 28.909 41.2729 29.4091C40.6451 29.9121 40.5457 30.8267 41.0457 31.4545L46.1367 37.8181L41.0457 44.1818C40.5457 44.8096 40.6451 45.7245 41.2729 46.2272C41.5429 46.4419 41.8609 46.5455 42.182 46.5455C42.6082 46.5455 43.0315 46.3578 43.3183 46L49.1365 38.7272C49.5598 38.196 49.5598 37.4402 49.1365 36.909L43.3183 29.6363Z" fill="#0057FF"/>
<path d="M22.727 29.409C22.0992 28.9133 21.1872 29.0099 20.6816 29.6362L14.8634 36.909C14.4401 37.4402 14.4401 38.196 14.8634 38.7272L20.6816 46C20.9684 46.3578 21.3917 46.5454 21.8179 46.5454C22.1361 46.5454 22.457 46.4419 22.727 46.2272C23.3548 45.7242 23.4542 44.8096 22.9542 44.1818L17.8632 37.8181L22.9542 31.4544C23.4542 30.8266 23.3548 29.9117 22.727 29.409Z" fill="#0057FF"/>
<path d="M36.9378 26.2995C36.1992 25.9813 35.3439 26.3208 35.026 27.0638L26.2987 47.4275C25.9833 48.1647 26.3243 49.02 27.0629 49.3368C27.2502 49.4176 27.4434 49.4546 27.6366 49.4546C28.1992 49.4546 28.7359 49.125 28.9747 48.5725L37.7021 28.2088C38.0174 27.4716 37.6765 26.6163 36.9378 26.2995Z" fill="#0057FF"/>
<path d="M21.8178 14.5453C22.6212 14.5453 23.2724 13.8941 23.2724 13.0908C23.2724 12.2875 22.6212 11.6362 21.8178 11.6362C21.0145 11.6362 20.3633 12.2875 20.3633 13.0908C20.3633 13.8941 21.0145 14.5453 21.8178 14.5453Z" fill="#0057FF"/>
<path d="M16 14.5453C16.8033 14.5453 17.4545 13.8941 17.4545 13.0908C17.4545 12.2875 16.8033 11.6362 16 11.6362C15.1966 11.6362 14.5454 12.2875 14.5454 13.0908C14.5454 13.8941 15.1966 14.5453 16 14.5453Z" fill="#0057FF"/>
<path d="M10.1816 14.5453C10.9849 14.5453 11.6362 13.8941 11.6362 13.0908C11.6362 12.2875 10.9849 11.6362 10.1816 11.6362C9.37828 11.6362 8.72705 12.2875 8.72705 13.0908C8.72705 13.8941 9.37828 14.5453 10.1816 14.5453Z" fill="#0057FF"/>
<path d="M57.8467 5.81799H6.1531C2.76108 5.81799 -0.000244141 8.57786 -0.000244141 11.9713V52.0283C-0.000244141 55.422 2.76108 58.1819 6.1531 58.1819H57.8465C61.2388 58.1819 64.0001 55.422 64.0001 52.0286V11.9713C64.0001 8.57786 61.2388 5.81799 57.8467 5.81799ZM6.1531 8.7271H57.8465C59.6364 8.7271 61.091 10.1831 61.091 11.9713V14.5453H33.4545C33.2756 14.5453 33.0967 14.5793 32.9288 14.6433L25.9091 17.3706H2.90886V11.9713C2.90886 10.1831 4.36341 8.7271 6.1531 8.7271ZM57.8467 55.2728H6.1531C4.36341 55.2728 2.90886 53.8168 2.90886 52.0286V20.2797H26.1817C26.3606 20.2797 26.5395 20.2457 26.7074 20.1817L33.7273 17.4544H61.091V52.0286C61.091 53.8168 59.6364 55.2728 57.8467 55.2728Z" fill="#0057FF"/>
</g>
<defs>
<clipPath id="clip0">
<rect width="64" height="64" fill="white"/>
</clipPath>
</defs>
</svg>
