<svg width="209" height="45" viewBox="0 0 209 45" fill="none" xmlns="http://www.w3.org/2000/svg">
<path d="M15.77 30.1428C16.1265 30.1428 16.4795 30.0727 16.8088 29.9363C17.1381 29.7999 17.4373 29.6 17.6894 29.348C17.9414 29.096 18.1414 28.7968 18.2778 28.4674C18.4142 28.1381 18.4844 27.7852 18.4844 27.4287C18.4844 22.3895 20.4862 17.5568 24.0495 13.9935C27.6126 10.4303 32.4455 8.42851 37.4846 8.42851C42.5237 8.42851 47.3567 10.4303 50.9197 13.9935C54.4831 17.5568 56.4848 22.3895 56.4848 27.4287C56.4919 28.1439 56.781 28.8273 57.2894 29.3305C57.7974 29.8337 58.4838 30.116 59.1992 30.116C59.9143 30.116 60.6007 29.8337 61.1088 29.3305C61.6172 28.8273 61.9063 28.1439 61.9133 27.4287C61.9133 24.2207 61.2814 21.0441 60.0539 18.0803C58.8261 15.1164 57.0268 12.4234 54.7584 10.155C52.4898 7.88658 49.7968 6.08718 46.8331 4.85953C43.8692 3.63187 40.6927 3 37.4846 3C34.2765 3 31.1001 3.63187 28.1361 4.85953C25.1723 6.08718 22.4793 7.88658 20.2109 10.155C17.9425 12.4234 16.1431 15.1164 14.9154 18.0803C13.6878 21.0441 13.0559 24.2207 13.0559 27.4287C13.0559 28.1485 13.3419 28.8389 13.8509 29.3479C14.3599 29.8569 15.0502 30.1428 15.77 30.1428Z" fill="#0057FF"/>
<path d="M72.228 35.5714H48.3331C50.1023 33.2258 51.0578 30.367 51.0548 27.4287C51.0548 23.8293 49.6249 20.3774 47.0798 17.8322C44.5345 15.287 41.0825 13.8572 37.4831 13.8572C33.884 13.8572 30.432 15.287 27.8867 17.8322C25.3416 20.3774 23.9117 23.8293 23.9117 27.4287C23.9117 28.1486 24.1977 28.839 24.7067 29.3481C25.2158 29.8571 25.9062 30.1431 26.6261 30.1431C27.3461 30.1431 28.0366 29.8571 28.5455 29.3481C29.0546 28.839 29.3405 28.1486 29.3405 27.4287C29.3405 25.8182 29.818 24.2438 30.7127 22.9047C31.6075 21.5656 32.8792 20.5218 34.3672 19.9055C35.8551 19.2891 37.4924 19.1278 39.0719 19.442C40.6514 19.7562 42.1025 20.5317 43.2412 21.6705C44.3801 22.8093 45.1556 24.2602 45.47 25.8398C45.784 27.4193 45.6228 29.0566 45.0066 30.5444C44.3901 32.0324 43.3466 33.3044 42.0074 34.1991C40.6682 35.0939 39.0938 35.5714 37.4834 35.5714H2.74152C2.38279 35.5678 2.02691 35.6353 1.69446 35.7703C1.36201 35.9049 1.05957 36.1044 0.804641 36.3567C0.549709 36.6092 0.347332 36.9095 0.209221 37.2406C0.0711094 37.5717 0 37.927 0 38.2858C0 38.6443 0.0711094 38.9995 0.209221 39.3307C0.347332 39.6618 0.549709 39.962 0.804641 40.2146C1.05957 40.4669 1.36201 40.6663 1.69446 40.801C2.02691 40.9359 2.38279 41.0034 2.74152 40.9999H72.228C72.9431 40.9928 73.6265 40.7037 74.1297 40.1954C74.6329 39.6873 74.9153 39.0009 74.9153 38.2858C74.9153 37.5704 74.6329 36.884 74.1297 36.3759C73.6265 35.8675 72.9431 35.5784 72.228 35.5714Z" fill="#0057FF"/>
<path d="M91.0335 24H95.0025V6.85H91.0335V24ZM102.625 24H106.594V10.084H112.082V6.85H97.1371V10.084H102.625V24ZM131.882 10.917L128.33 20.619L124.802 10.917H122.229L118.628 20.57L115.173 10.917H112.282L117.084 24H120.024L123.454 14.984L126.835 24H129.775L134.602 10.917H131.882ZM138.104 8.516C139.035 8.516 139.696 7.83 139.696 6.948C139.696 6.115 139.01 5.4535 138.104 5.4535C137.197 5.4535 136.511 6.1395 136.511 6.997C136.511 7.8545 137.197 8.516 138.104 8.516ZM136.928 24H139.28V11.015H136.928V24ZM150.533 11.015C148.303 11.015 146.564 11.9215 145.633 13.4895V11.113H143.967V24H145.706V17.238C145.706 14.298 147.446 12.583 150.214 12.583C152.664 12.583 154.085 13.9795 154.085 16.699V24H155.825V16.5275C155.825 12.828 153.669 11.015 150.533 11.015ZM170.862 5.821V14.1755C169.833 12.24 167.922 11.113 165.643 11.113C162.042 11.113 159.322 13.759 159.322 17.6055C159.322 21.4275 162.042 24.098 165.643 24.098C167.946 24.098 169.882 22.971 170.886 20.9865V24H172.087V5.821H170.862ZM165.717 22.9955C162.777 22.9955 160.572 20.815 160.572 17.6055C160.572 14.396 162.777 12.2155 165.717 12.2155C168.657 12.2155 170.862 14.396 170.862 17.6055C170.862 20.815 168.657 22.9955 165.717 22.9955Z" fill="#0057FF"/>
<path d="M92.684 42.072C94.832 42.072 95.816 41.016 95.816 39.78C95.816 36.72 90.644 38.112 90.644 35.808C90.644 34.968 91.328 34.284 92.864 34.284C93.608 34.284 94.448 34.512 95.168 34.98L95.468 34.272C94.796 33.804 93.812 33.528 92.864 33.528C90.728 33.528 89.768 34.596 89.768 35.832C89.768 38.94 94.94 37.524 94.94 39.828C94.94 40.656 94.256 41.316 92.684 41.316C91.58 41.316 90.512 40.884 89.912 40.296L89.564 40.98C90.188 41.628 91.424 42.072 92.684 42.072ZM103.079 38.844C103.079 36.948 101.795 35.64 100.019 35.64C98.2428 35.64 96.9348 36.972 96.9348 38.844C96.9348 40.716 98.2788 42.06 100.247 42.06C101.243 42.06 102.119 41.7 102.683 41.028L102.203 40.476C101.723 41.028 101.039 41.304 100.271 41.304C98.8908 41.304 97.8828 40.428 97.7868 39.108H103.067C103.067 39.012 103.079 38.916 103.079 38.844ZM100.019 36.372C101.255 36.372 102.155 37.236 102.263 38.472H97.7868C97.8948 37.236 98.7948 36.372 100.019 36.372ZM105.629 36.924V35.688H104.813V42H105.665V38.784C105.665 37.296 106.469 36.456 107.789 36.456C107.849 36.456 107.921 36.468 107.993 36.468V35.64C106.829 35.64 106.025 36.084 105.629 36.924ZM109.968 34.308C110.328 34.308 110.592 34.032 110.592 33.684C110.592 33.36 110.316 33.096 109.968 33.096C109.62 33.096 109.344 33.372 109.344 33.696C109.344 34.032 109.62 34.308 109.968 34.308ZM109.536 42H110.388V35.688H109.536V42ZM117.222 35.688L114.834 41.064L112.47 35.688H111.582L114.378 42H115.254L118.062 35.688H117.222ZM124.594 38.844C124.594 36.948 123.31 35.64 121.534 35.64C119.758 35.64 118.45 36.972 118.45 38.844C118.45 40.716 119.794 42.06 121.762 42.06C122.758 42.06 123.634 41.7 124.198 41.028L123.718 40.476C123.238 41.028 122.554 41.304 121.786 41.304C120.406 41.304 119.398 40.428 119.302 39.108H124.582C124.582 39.012 124.594 38.916 124.594 38.844ZM121.534 36.372C122.77 36.372 123.67 37.236 123.778 38.472H119.302C119.41 37.236 120.31 36.372 121.534 36.372ZM136.153 41.568L134.953 40.332C135.289 39.804 135.541 39.156 135.697 38.4L135.001 38.184C134.881 38.82 134.689 39.36 134.437 39.804L132.133 37.428C133.501 36.636 134.005 36.048 134.005 35.208C134.005 34.164 133.237 33.54 132.049 33.54C130.753 33.54 129.925 34.26 129.925 35.328C129.925 35.976 130.165 36.48 130.981 37.32C129.445 38.208 128.869 38.94 128.869 39.936C128.869 41.208 130.045 42.072 131.689 42.072C132.829 42.072 133.789 41.688 134.497 40.932L135.661 42.132L136.153 41.568ZM132.049 34.176C132.829 34.176 133.273 34.596 133.273 35.22C133.273 35.82 132.877 36.24 131.665 36.936C130.897 36.156 130.717 35.808 130.717 35.316C130.717 34.644 131.209 34.176 132.049 34.176ZM131.737 41.364C130.525 41.364 129.709 40.764 129.709 39.852C129.709 39.108 130.117 38.58 131.461 37.812L133.993 40.416C133.417 41.052 132.649 41.364 131.737 41.364ZM142.449 42H143.337V34.368H146.289V33.6H139.497V34.368H142.449V42ZM152.38 38.844C152.38 36.948 151.096 35.64 149.32 35.64C147.544 35.64 146.236 36.972 146.236 38.844C146.236 40.716 147.58 42.06 149.548 42.06C150.544 42.06 151.42 41.7 151.984 41.028L151.504 40.476C151.024 41.028 150.34 41.304 149.572 41.304C148.192 41.304 147.184 40.428 147.088 39.108H152.368C152.368 39.012 152.38 38.916 152.38 38.844ZM149.32 36.372C150.556 36.372 151.456 37.236 151.564 38.472H147.088C147.196 37.236 148.096 36.372 149.32 36.372ZM156.73 42.06C157.798 42.06 158.698 41.628 159.202 40.812L158.566 40.38C158.134 41.016 157.462 41.304 156.73 41.304C155.35 41.304 154.342 40.332 154.342 38.844C154.342 37.368 155.35 36.384 156.73 36.384C157.462 36.384 158.134 36.684 158.566 37.32L159.202 36.888C158.698 36.06 157.798 35.64 156.73 35.64C154.846 35.64 153.478 36.96 153.478 38.844C153.478 40.728 154.846 42.06 156.73 42.06ZM163.998 35.64C162.93 35.64 162.102 36.06 161.634 36.792V33.096H160.782V42H161.634V38.688C161.634 37.248 162.486 36.408 163.842 36.408C165.042 36.408 165.738 37.092 165.738 38.424V42H166.59V38.34C166.59 36.528 165.534 35.64 163.998 35.64ZM172.119 35.64C171.027 35.64 170.175 36.084 169.719 36.852V35.688H168.903V42H169.755V38.688C169.755 37.248 170.607 36.408 171.963 36.408C173.163 36.408 173.859 37.092 173.859 38.424V42H174.711V38.34C174.711 36.528 173.655 35.64 172.119 35.64ZM179.627 42.06C181.475 42.06 182.831 40.716 182.831 38.844C182.831 36.972 181.475 35.64 179.627 35.64C177.779 35.64 176.411 36.972 176.411 38.844C176.411 40.716 177.779 42.06 179.627 42.06ZM179.627 41.304C178.283 41.304 177.275 40.32 177.275 38.844C177.275 37.368 178.283 36.384 179.627 36.384C180.971 36.384 181.967 37.368 181.967 38.844C181.967 40.32 180.971 41.304 179.627 41.304ZM184.571 42H185.423V33.096H184.571V42ZM190.373 42.06C192.221 42.06 193.577 40.716 193.577 38.844C193.577 36.972 192.221 35.64 190.373 35.64C188.525 35.64 187.157 36.972 187.157 38.844C187.157 40.716 188.525 42.06 190.373 42.06ZM190.373 41.304C189.029 41.304 188.021 40.32 188.021 38.844C188.021 37.368 189.029 36.384 190.373 36.384C191.717 36.384 192.713 37.368 192.713 38.844C192.713 40.32 191.717 41.304 190.373 41.304ZM200.345 35.688V36.9C199.817 36.072 198.905 35.64 197.849 35.64C196.049 35.64 194.681 36.876 194.681 38.688C194.681 40.5 196.049 41.76 197.849 41.76C198.881 41.76 199.781 41.34 200.309 40.536V41.34C200.309 42.9 199.577 43.632 197.981 43.632C197.009 43.632 196.097 43.308 195.497 42.768L195.065 43.416C195.725 44.04 196.853 44.388 198.005 44.388C200.093 44.388 201.161 43.404 201.161 41.232V35.688H200.345ZM197.933 41.004C196.541 41.004 195.545 40.056 195.545 38.688C195.545 37.32 196.541 36.384 197.933 36.384C199.325 36.384 200.333 37.32 200.333 38.688C200.333 40.056 199.325 41.004 197.933 41.004ZM208.007 35.688L205.631 41.052L203.255 35.688H202.367L205.187 41.988L204.911 42.6C204.551 43.392 204.167 43.656 203.603 43.656C203.147 43.656 202.763 43.488 202.451 43.176L202.055 43.812C202.439 44.196 203.003 44.388 203.591 44.388C204.491 44.388 205.163 43.992 205.691 42.756L208.847 35.688H208.007Z" fill="#18181B"/>
</svg>
